<mxfile host="Electron" modified="2023-11-04T10:49:48.058Z" agent="Mozilla/5.0 (Windows NT 10.0; Win64; x64) AppleWebKit/537.36 (KHTML, like Gecko) draw.io/22.0.3 Chrome/114.0.5735.289 Electron/25.8.4 Safari/537.36" etag="JJx6qgzljn7aPrSBvvw8" version="22.0.3" type="device">
  <diagram name="Page-1" id="ojhCUcmLnNoBAPpdmIsO">
    <mxGraphModel dx="1434" dy="844" grid="1" gridSize="10" guides="1" tooltips="1" connect="1" arrows="1" fold="1" page="1" pageScale="1" pageWidth="850" pageHeight="1100" math="0" shadow="0">
      <root>
        <mxCell id="0" />
        <mxCell id="1" parent="0" />
        <mxCell id="Q842pkYlbD_OXisjqqF4-9" value="&lt;br&gt;&lt;br&gt;&lt;br&gt;&lt;br&gt;&lt;br&gt;ARAS REST API Server&lt;br&gt;DOT NET CORE WEB API" style="rounded=1;whiteSpace=wrap;html=1;" vertex="1" parent="1">
          <mxGeometry x="300" y="130" width="230" height="150" as="geometry" />
        </mxCell>
        <mxCell id="Q842pkYlbD_OXisjqqF4-1" value="Angular UI&lt;br&gt;Part Management&lt;br&gt;Drawing Mangement&lt;br&gt;Role based security" style="rounded=1;whiteSpace=wrap;html=1;" vertex="1" parent="1">
          <mxGeometry x="10" y="155" width="190" height="100" as="geometry" />
        </mxCell>
        <mxCell id="Q842pkYlbD_OXisjqqF4-2" value="ARAS API&lt;br&gt;Server" style="rounded=1;whiteSpace=wrap;html=1;" vertex="1" parent="1">
          <mxGeometry x="335" y="160" width="160" height="60" as="geometry" />
        </mxCell>
        <mxCell id="Q842pkYlbD_OXisjqqF4-3" value="ARAS PLM Platform" style="rounded=1;whiteSpace=wrap;html=1;" vertex="1" parent="1">
          <mxGeometry x="650" y="175" width="120" height="60" as="geometry" />
        </mxCell>
        <mxCell id="Q842pkYlbD_OXisjqqF4-5" value="" style="shape=flexArrow;endArrow=classic;startArrow=classic;html=1;rounded=0;entryX=0;entryY=0.5;entryDx=0;entryDy=0;" edge="1" parent="1">
          <mxGeometry width="100" height="100" relative="1" as="geometry">
            <mxPoint x="530" y="204.5" as="sourcePoint" />
            <mxPoint x="650" y="204.5" as="targetPoint" />
          </mxGeometry>
        </mxCell>
        <mxCell id="Q842pkYlbD_OXisjqqF4-12" value="" style="shape=flexArrow;endArrow=classic;startArrow=classic;html=1;rounded=0;entryX=-0.022;entryY=0.46;entryDx=0;entryDy=0;entryPerimeter=0;" edge="1" parent="1" target="Q842pkYlbD_OXisjqqF4-9">
          <mxGeometry width="100" height="100" relative="1" as="geometry">
            <mxPoint x="200" y="200" as="sourcePoint" />
            <mxPoint x="300" y="100" as="targetPoint" />
          </mxGeometry>
        </mxCell>
        <mxCell id="Q842pkYlbD_OXisjqqF4-14" value="Redis Cache" style="rounded=1;whiteSpace=wrap;html=1;" vertex="1" parent="1">
          <mxGeometry x="320" y="380" width="145" height="60" as="geometry" />
        </mxCell>
        <mxCell id="Q842pkYlbD_OXisjqqF4-15" value="" style="shape=flexArrow;endArrow=classic;startArrow=classic;html=1;rounded=0;entryX=0.391;entryY=1;entryDx=0;entryDy=0;entryPerimeter=0;" edge="1" parent="1" target="Q842pkYlbD_OXisjqqF4-9">
          <mxGeometry width="100" height="100" relative="1" as="geometry">
            <mxPoint x="387" y="380" as="sourcePoint" />
            <mxPoint x="420" y="280" as="targetPoint" />
          </mxGeometry>
        </mxCell>
      </root>
    </mxGraphModel>
  </diagram>
</mxfile>
